<?xml version="1.0" encoding="UTF-8"?>
<svg width="200px" height="200px" viewBox="0 0 200 200" version="1.1" xmlns="http://www.w3.org/2000/svg" xmlns:xlink="http://www.w3.org/1999/xlink">
    <!-- Generator: Sketch 49 (51002) - http://www.bohemiancoding.com/sketch -->
    <title>Artboard 6</title>
    <desc>Created with Sketch.</desc>
    <defs></defs>
    <g id="Artboard-6" stroke="none" stroke-width="1" fill="none" fill-rule="evenodd">
        <g id="noun_Bitcoin_29738_000000" transform="translate(25.000000, 25.000000)" fill="#fff">
            <path d="M75,0 C116.666667,0 150,33.3333333 150,75 C150,116.666667 116.666667,150 75,150 C33.3333333,150 0,116.666667 0,75 C0,33.3333333 33.3333333,0 75,0 Z M98.3333333,71.6666667 C103.333333,68.3333333 106.666667,63.3333333 106.666667,56.6666667 C105,45 96.6666667,41.6666667 85,41.6666667 L85,26.6666667 L75,26.6666667 L75,41.6666667 C73.3333333,41.6666667 70,41.6666667 68.3333333,41.6666667 L68.3333333,26.6666667 L58.3333333,26.6666667 L58.3333333,41.6666667 C56.6666667,41.6666667 55,41.6666667 51.6666667,41.6666667 L38.3333333,41.6666667 L38.3333333,51.6666667 C38.3333333,51.6666667 45,51.6666667 45,51.6666667 C48.3333333,51.6666667 50,53.3333333 50,55 L50,71.6666667 L50,96.6666667 C50,98.3333333 48.3333333,100 46.6666667,100 C46.6666667,100 40,100 40,100 L38.3333333,111.666667 L50,111.666667 C51.6666667,111.666667 55,111.666667 56.6666667,111.666667 L56.6666667,126.666667 L66.6666667,126.666667 L66.6666667,111.666667 C70,111.666667 71.6666667,111.666667 73.3333333,111.666667 L73.3333333,126.666667 L83.3333333,126.666667 L83.3333333,111.666667 C98.3333333,110 110,106.666667 111.666667,91.6666667 C113.333333,80 106.666667,75 98.3333333,73.3333333 L98.3333333,71.6666667 Z M66.6666667,51.6666667 C71.6666667,51.6666667 88.3333333,50 88.3333333,61.6666667 C88.3333333,71.6666667 71.6666667,71.6666667 66.6666667,71.6666667 L66.6666667,53.3333333 L66.6666667,51.6666667 Z M66.6666667,100 L66.6666667,80 C73.3333333,80 93.3333333,78.3333333 93.3333333,90 C93.3333333,101.666667 73.3333333,100 66.6666667,100 Z" id="Shape"></path>
        </g>
    </g>
</svg>