<?xml version="1.0" encoding="UTF-8"?>
<svg width="314px" height="345px" viewBox="0 0 314 345" version="1.1" xmlns="http://www.w3.org/2000/svg" xmlns:xlink="http://www.w3.org/1999/xlink">
    <!-- Generator: Sketch 49 (51002) - http://www.bohemiancoding.com/sketch -->
    <title>Combined Shape</title>
    <desc>Created with Sketch.</desc>
    <defs></defs>
    <g id="Page-1" stroke="none" stroke-width="1" fill="none" fill-rule="evenodd">
        <path d="M0,145.419507 C41.8917445,169.560518 87.9551522,172.425751 138.190223,154.015208 C188.425294,135.604665 211.478487,88.5790161 207.349803,12.9382619 C230.788932,36.9981389 242.508497,62.7727904 242.508497,90.2622165 C242.508497,108.014018 241.908644,134.947698 232.134134,165.249928 C228.559642,176.33131 220.298198,193.872702 207.349803,217.874105 C246.070991,198.945742 275.418036,196.794664 295.390938,211.420869 C315.36384,226.047075 318.949075,253.492198 306.146643,293.756239 C304.479941,270.557821 295.451821,256.779022 279.062282,252.419844 C262.672744,248.060665 240.433872,256.623048 212.345666,278.106992 C176.4175,302.836244 148.667294,319.486127 129.095048,328.056642 C99.73668,340.912413 94.2077012,346.613593 60.4815027,344.606975 C46.7909187,343.792422 27.2212525,338.997204 15.2536829,328.056642 C10.1291194,323.371847 5.04455844,313.895095 0,299.626387 C24.2539799,315.348868 47.8728788,314.298765 70.8566968,296.476078 C93.8405147,278.653391 105.363708,252.452733 105.426275,217.874105 C71.309931,209.668553 47.5540171,200.962729 34.1585337,191.756634 C20.7630503,182.550538 9.37687244,167.104829 0,145.419507 Z M139.067014,132.698095 C132.354565,134.944716 108.851078,140.551028 100.92004,141.230461 C92.025292,141.992454 70.4941649,142.975412 36.3266585,144.179337 C47.9367173,135.786342 55.6749247,130.311282 59.5412805,127.754156 C66.8719645,122.905797 72.519959,121.654029 70.431731,119.817117 C56.1766881,107.277651 47.1811304,88.9010885 47.1811304,68.4235006 C47.1811304,30.6342447 77.8153751,0 115.604631,0 C153.393887,0 184.028132,30.6342447 184.028132,68.4235006 C184.028132,98.6057333 165.699862,123.784223 139.067014,132.698095 Z" id="Combined-Shape" fill="#fff"></path>
    </g>
</svg>