<?xml version="1.0" encoding="UTF-8"?>
<svg width="200px" height="196px" viewBox="0 0 200 196" version="1.1" xmlns="http://www.w3.org/2000/svg" xmlns:xlink="http://www.w3.org/1999/xlink">
    <!-- Generator: Sketch 49 (51002) - http://www.bohemiancoding.com/sketch -->
    <title>ic-inst</title>
    <desc>Created with Sketch.</desc>
    <defs>
        <path d="M100.022309,50.1302083 C71.6452872,50.1302083 48.7562744,72.3958333 48.7562744,100 C48.7562744,127.604167 71.6452872,149.869792 100.022309,149.869792 C128.399331,149.869792 151.288344,127.604167 151.288344,100 C151.288344,72.3958333 128.399331,50.1302083 100.022309,50.1302083 Z M100.022309,132.421875 C81.6843279,132.421875 66.6926938,117.881944 66.6926938,100 C66.6926938,82.1180556 81.63971,67.578125 100.022309,67.578125 C118.404908,67.578125 133.351924,82.1180556 133.351924,100 C133.351924,117.881944 118.36029,132.421875 100.022309,132.421875 Z M165.343001,48.0902778 C165.343001,54.5572917 159.988846,59.7222222 153.385388,59.7222222 C146.737312,59.7222222 141.427775,54.5138889 141.427775,48.0902778 C141.427775,41.6666667 146.78193,36.4583333 153.385388,36.4583333 C159.988846,36.4583333 165.343001,41.6666667 165.343001,48.0902778 Z M199.297267,59.8958333 C198.538762,44.3142361 194.880089,30.5121528 183.145566,19.140625 C171.455661,7.76909722 157.26715,4.21006944 141.249303,3.42881944 C124.740658,2.51736111 75.2593419,2.51736111 58.7506972,3.42881944 C42.7774679,4.16666667 28.5889571,7.72569444 16.8544339,19.0972222 C5.11991076,30.46875 1.50585611,44.2708333 0.70273285,59.8524306 C-0.234244283,75.9114583 -0.234244283,124.045139 0.70273285,140.104167 C1.46123815,155.685764 5.11991076,169.487847 16.8544339,180.859375 C28.5889571,192.230903 42.73285,195.789931 58.7506972,196.571181 C75.2593419,197.482639 124.740658,197.482639 141.249303,196.571181 C157.26715,195.833333 171.455661,192.274306 183.145566,180.859375 C194.835471,169.487847 198.494144,155.685764 199.297267,140.104167 C200.234244,124.045139 200.234244,75.9548611 199.297267,59.8958333 Z M177.969883,157.335069 C174.489682,165.842014 167.75237,172.395833 158.962632,175.824653 C145.800335,180.902778 114.567764,179.730903 100.022309,179.730903 C85.4768544,179.730903 54.1996654,180.859375 41.0819855,175.824653 C32.3368656,172.439236 25.5995538,165.885417 22.0747351,157.335069 C16.8544339,144.53125 18.0591188,114.149306 18.0591188,100 C18.0591188,85.8506944 16.8990519,55.4253472 22.0747351,42.6649306 C25.5549359,34.1579861 32.2922476,27.6041667 41.0819855,24.1753472 C54.2442833,19.0972222 85.4768544,20.2690972 100.022309,20.2690972 C114.567764,20.2690972 145.844953,19.140625 158.962632,24.1753472 C167.707752,27.5607639 174.445064,34.1145833 177.969883,42.6649306 C183.190184,55.46875 181.985499,85.8506944 181.985499,100 C181.985499,114.149306 183.190184,144.574653 177.969883,157.335069 Z" id="path-1"></path>
    </defs>
    <g id="Page-1" stroke="none" stroke-width="1" fill="none" fill-rule="evenodd">
        <g id="ic-inst" transform="translate(0.000000, -2.000000)">
            <mask id="mask-2" fill="white">
                <use xlink:href="#path-1"></use>
            </mask>
            <use id="instagram" fill="#fff" fill-rule="nonzero" xlink:href="#path-1"></use>
        </g>
    </g>
</svg>