<?xml version="1.0" encoding="UTF-8"?>
<svg width="65px" height="61px" viewBox="0 0 65 61" version="1.1" xmlns="http://www.w3.org/2000/svg" xmlns:xlink="http://www.w3.org/1999/xlink">
    <!-- Generator: Sketch 49 (51002) - http://www.bohemiancoding.com/sketch -->
    <title>Icons/Brands/reddit-alien</title>
    <desc>Created with Sketch.</desc>
    <defs>
        <path d="M57.4000329,23.4144694 C55.3736657,23.4144694 53.5904626,24.2520345 52.2800785,25.5624186 C47.4573246,22.2256673 40.9594405,20.0777181 33.7590824,19.8480632 L37.5011071,2.98868815 L49.4161462,5.66349284 C49.4161462,8.58146159 51.7937504,10.9590658 54.7117191,10.9590658 C57.6837243,10.9590658 60.0748376,8.51391602 60.0748376,5.59594727 C60.0748376,2.67797852 57.6972334,0.232828776 54.7117191,0.232828776 C52.6313155,0.232828776 50.8346032,1.48917643 49.9430017,3.20483398 L36.7851241,0.286865234 C36.1231774,0.111246745 35.4747399,0.584065755 35.2991214,1.24601237 L31.1923506,19.834554 C24.046029,20.1317546 17.6156905,22.2797038 12.7794274,25.6164551 C11.4690433,24.2520345 9.61829463,23.4144694 7.59192744,23.4144694 C0.0808597293,23.4144694 -2.37779912,33.4922689 4.4983402,36.9370931 C4.25517614,38.0043132 4.14710322,39.1390788 4.14710322,40.2738444 C4.14710322,51.5944824 16.8997074,60.7671712 32.5567712,60.7671712 C48.2813806,60.7671712 61.0339847,51.5944824 61.0339847,40.2738444 C61.0339847,39.1390788 60.9124027,37.9502767 60.6152022,36.8830566 C67.3562504,33.4247233 64.8705733,23.4144694 57.4000329,23.4144694 Z M15.4001957,37.6530762 C15.4001957,34.681071 17.7777998,32.2899577 20.7633142,32.2899577 C23.6812829,32.2899577 26.0588871,34.6675618 26.0588871,37.6530762 C26.0588871,40.5710449 23.6812829,42.9486491 20.7633142,42.9486491 C17.7913089,42.9621582 15.4001957,40.5710449 15.4001957,37.6530762 Z M44.3502282,50.2840983 C39.4329105,55.201416 25.5590498,55.201416 20.6417321,50.2840983 C20.1013675,49.8112793 20.1013675,48.9737142 20.6417321,48.4333496 C21.1145511,47.9605306 21.9521162,47.9605306 22.4249353,48.4333496 C26.1804691,52.2834473 38.6358728,52.3509928 42.553516,48.4333496 C43.026335,47.9605306 43.8639001,47.9605306 44.3367191,48.4333496 C44.8905928,48.9737142 44.8905928,49.8112793 44.3502282,50.2840983 Z M44.2421553,42.9621582 C41.3241866,42.9621582 38.9465824,40.584554 38.9465824,37.6665853 C38.9465824,34.6945801 41.3241866,32.3034668 44.2421553,32.3034668 C47.2141605,32.3034668 49.6052738,34.681071 49.6052738,37.6665853 C49.5917647,40.5710449 47.2141605,42.9621582 44.2421553,42.9621582 Z" id="path-1"></path>
    </defs>
    <g id="Page-1" stroke="none" stroke-width="1" fill="none" fill-rule="evenodd">
        <g id="Icons/Brands/reddit-alien">
            <mask id="mask-2" fill="white">
                <use xlink:href="#path-1"></use>
            </mask>
            <use id="reddit-alien" fill="#fff" fill-rule="nonzero" xlink:href="#path-1"></use>
        </g>
    </g>
</svg>