<?xml version="1.0" encoding="UTF-8"?>
<svg width="50px" height="50px" viewBox="0 0 50 50" version="1.1" xmlns="http://www.w3.org/2000/svg" xmlns:xlink="http://www.w3.org/1999/xlink">
    <!-- Generator: Sketch 49 (51002) - http://www.bohemiancoding.com/sketch -->
    <title>s</title>
    <desc>Created with Sketch.</desc>
    <defs></defs>
    <g id="Page-1" stroke="none" stroke-width="1" fill="none" fill-rule="evenodd">
        <g id="s" fill="#fff">
            <path d="M43.2471856,15.0964314 C41.1649345,13.0143167 38.7413309,11.4908181 36.1641186,10.5090079 C37.6660702,6.09086207 42.9911712,4.48272469 42.9911712,4.48272469 C42.9911712,4.48272469 30.5659355,-1.96675257 16.8435599,0.606267228 C12.2694346,1.33416099 7.8830534,4.14416946 4.67433869,7.85134933 C-2.2892549,15.8920363 -1.36760282,27.995386 6.7395221,34.9019128 C7.98545921,35.9683618 10.7674831,37.6272824 10.818686,37.7119212 C8.99244945,42.350128 3.15531949,43.6197101 3.15531949,43.6197101 C3.15531949,43.6197101 10.8698889,48.4441223 21.2299411,49.6967766 C23.9778298,50.0353319 26.8963948,50.1199707 29.9173655,49.7983433 C34.71337,49.4090047 39.4923067,46.8698405 43.1277122,43.2980827 C50.9958903,35.5451678 51.0641608,22.9170574 43.2471856,15.0964314 Z M39.6971182,40.2172301 C36.7614856,43.0949496 32.3751044,44.9231479 28.9957134,45.1770643 C26.6062451,45.4140529 24.0461003,45.4479084 21.5883614,45.1432087 C17.9700236,44.7030869 15.358676,43.7043489 12.7985312,42.7394665 C14.0956712,41.4868122 15.3928111,39.7601804 15.9219077,38.2705374 C16.2632604,37.3902938 16.2291251,36.4084836 15.819502,35.5451678 C13.0716133,29.8912953 14.2663476,23.1201905 18.7892699,18.7189724 C22.0662551,15.5196254 26.5721098,14.0130547 31.146235,14.5716708 C34.5085584,14.977937 37.5636644,16.4506523 39.9531328,18.8374667 C45.7561275,24.6606169 45.5513159,34.5125743 39.6971182,40.2172301 Z" id="Shape"></path>
        </g>
    </g>
</svg>